<?xml version="1.0" encoding="UTF-8"?>
<svg width="38px" height="60px" viewBox="0 0 38 60" version="1.1" xmlns="http://www.w3.org/2000/svg" xmlns:xlink="http://www.w3.org/1999/xlink">
    <!-- Generator: Sketch 52.6 (67491) - http://www.bohemiancoding.com/sketch -->
    <title>Group</title>
    <desc>Created with Sketch.</desc>
    <g id="Page-1" stroke="none" stroke-width="1" fill="none" fill-rule="evenodd">
        <g id="Artboard" transform="translate(-12.000000, -1.000000)" fill="#000000">
            <g id="Group" transform="translate(12.000000, 1.000000)">
                <path d="M29,4 C9.66666667,30.8726295 1.42334927e-16,46.1525178 0,49.8396649 C0,50.3682936 1.83500434,49.423589 2.27748691,49.3865545 C3.54019974,49.2808691 4.87352357,48.3431595 7.51570681,47.951705 C8.88299848,47.749133 11.0086529,47.5729234 13.8926702,47.4230763 C14.3755452,39.9278963 15.5902049,33.3829689 17.5366492,27.788294 C19.4830935,22.193619 23.3042104,14.2641877 29,4 Z" id="Path-2"></path>
                <path d="M33.2919463,0 C26.7929985,10.2693501 22.3679426,18.4362274 20.0167785,24.5006321 C17.6656144,30.5650368 15.9933549,38.1250874 15,47.1807838 C19.8496161,47.2590907 23.8373119,48.1693309 26.9630872,49.9115044 C30.0888626,51.6536779 33.7678335,55.0165098 38,60 C33.4205817,52.8192162 30.204698,43.4892541 28.352349,32.0101138 C26.5,20.5309735 28.1465324,9.86093552 33.2919463,0 Z" id="Path-3"></path>
            </g>
        </g>
    </g>
</svg>