<?xml version="1.0" encoding="UTF-8"?>
<svg width="26px" height="40px" viewBox="0 0 26 40" version="1.1" xmlns="http://www.w3.org/2000/svg" xmlns:xlink="http://www.w3.org/1999/xlink">
    <!-- Generator: Sketch 52.6 (67491) - http://www.bohemiancoding.com/sketch -->
    <title>Group</title>
    <desc>Created with Sketch.</desc>
    <g id="Page-1" stroke="none" stroke-width="1" fill="none" fill-rule="evenodd">
        <g id="Artboard" transform="translate(-12.000000, -1.000000)" fill="#000000">
            <g id="Group" transform="translate(12.000000, 1.000000)">
                <path d="M19.5912294,2 C6.53040979,19.8471487 3.64886941e-15,29.9951113 3.55271368e-15,32.4438877 C3.55271368e-15,32.7949705 1.23965486,32.1675557 1.53857822,32.1429597 C2.39161604,32.07277 3.2923558,31.4500008 5.07730814,31.1900209 C6.0009952,31.055485 7.43700154,30.9384574 9.38532716,30.8389381 C9.71153807,25.8611003 10.5321131,21.5143618 11.8470523,17.7987226 C13.1619915,14.0830834 15.7433839,8.81684256 19.5912294,2 Z" id="Path-2"></path>
                <path d="M22.154768,0 C17.836299,6.79015382 14.8959051,12.1901405 13.3335862,16.19996 C11.7712672,20.2097796 10.6600718,25.2085288 10,31.1962079 C13.2225088,31.2479848 15.8722825,31.8498409 17.9493208,33.0017762 C20.0263592,34.1537114 22.470989,36.3772353 25.2832104,39.6723479 C22.2402445,34.924372 20.1033303,28.755347 18.8724678,21.1652729 C17.6416052,13.5751987 18.7357052,6.52010775 22.154768,0 Z" id="Path-3"></path>
            </g>
        </g>
    </g>
</svg>